#define layout_threecol_width 12
#define layout_threecol_height 12
static unsigned char layout_threecol_bits[] = {
   0x00, 0x00, 0x00, 0x00, 0xf6, 0x06, 0xf6, 0x06, 0xf6, 0x06, 0xf6, 0x06,
   0xf6, 0x06, 0xf6, 0x06, 0xf6, 0x06, 0xf6, 0x06, 0x00, 0x00, 0x00, 0x00 };
