#define layout_tall_width 12
#define layout_tall_height 12
static unsigned char layout_tall_bits[] = {
   0x00, 0x00, 0x00, 0x00, 0x7e, 0x07, 0x7e, 0x07, 0x7e, 0x00, 0x7e, 0x07,
   0x7e, 0x07, 0x7e, 0x00, 0x7e, 0x07, 0x7e, 0x07, 0x00, 0x00, 0x00, 0x00 };
